<?xml version="1.0" encoding="UTF-8" standalone="no"?>
<!-- Created with Inkscape (http://www.inkscape.org/) -->

<svg
   width="1633.9094"
   height="512"
   viewBox="0 0 432.30519 135.46667"
   version="1.1"
   id="svg5"
   xml:space="preserve"
   sodipodi:docname="pdf-to-image.svg"
   inkscape:version="1.2.1 (9c6d41e410, 2022-07-14)"
   xmlns:inkscape="http://www.inkscape.org/namespaces/inkscape"
   xmlns:sodipodi="http://sodipodi.sourceforge.net/DTD/sodipodi-0.dtd"
   xmlns="http://www.w3.org/2000/svg"
   xmlns:svg="http://www.w3.org/2000/svg"><sodipodi:namedview
     id="namedview7"
     pagecolor="#505050"
     bordercolor="#eeeeee"
     borderopacity="1"
     inkscape:showpageshadow="0"
     inkscape:pageopacity="0"
     inkscape:pagecheckerboard="0"
     inkscape:deskcolor="#505050"
     inkscape:document-units="mm"
     showgrid="false"
     inkscape:zoom="0.5946522"
     inkscape:cx="739.08749"
     inkscape:cy="164.80222"
     inkscape:window-width="1920"
     inkscape:window-height="1027"
     inkscape:window-x="-8"
     inkscape:window-y="1072"
     inkscape:window-maximized="1"
     inkscape:current-layer="layer1" /><defs
     id="defs2" /><g
     inkscape:label="Ebene 1"
     inkscape:groupmode="layer"
     id="layer1"
     transform="translate(79.031568,8.1346665)"><path
       d="m 243.20697,0.33200063 c -9.33979,0 -16.93334,7.59354137 -16.93334,16.93333337 v 59.266667 c 0,9.339791 7.59355,16.933332 16.93334,16.933332 h 93.13333 c 9.33979,0 16.93333,-7.593541 16.93333,-16.933332 V 17.265334 c 0,-9.339792 -7.59354,-16.93333337 -16.93333,-16.93333337 z m 62.44166,28.23104137 25.4,38.1 c 1.29646,1.957917 1.42875,4.445 0.3175,6.50875 -1.11125,2.06375 -3.25438,3.360209 -5.60917,3.360209 h -38.09999 -12.7 -21.16667 c -2.43417,0 -4.65667,-1.402292 -5.715,-3.598334 -1.05833,-2.196041 -0.76729,-4.815416 0.76729,-6.720416 l 16.93334,-21.166667 c 1.21708,-1.508125 3.01625,-2.38125 4.9477,-2.38125 1.93146,0 3.75709,0.873125 4.94771,2.38125 l 4.57729,5.715 14.81667,-22.225 c 1.19063,-1.74625 3.175,-2.804583 5.29167,-2.804583 2.11666,0 4.10103,1.058333 5.29166,2.831041 z m -53.975,-2.831041 a 8.4666667,8.4666667 0 1 1 16.93334,0 8.4666667,8.4666667 0 1 1 -16.93334,0 z m -38.1,-2.116667 c 0,-3.518958 -2.83104,-6.35 -6.35,-6.35 -3.51895,0 -6.35,2.831042 -6.35,6.35 v 59.266667 c 0,19.870199 16.11313,35.983329 35.98334,35.983329 h 84.66666 c 3.51896,0 6.35,-2.83104 6.35,-6.35 0,-3.51896 -2.83104,-6.35 -6.35,-6.35 h -84.66666 c -12.85875,0 -23.28334,-10.424577 -23.28334,-23.283329 z"
       id="path2660"
       style="fill:#ffffff;stroke-width:0.264583" /><path
       d="m 146.24909,101.40283 c 2.32833,1.00543 5.02708,0.52917 6.87916,-1.21708 l 38.1,-35.983335 c 1.27,-1.190625 1.98438,-2.8575 1.98438,-4.60375 0,-1.74625 -0.71438,-3.413125 -1.98438,-4.60375 l -38.1,-35.983333 c -1.85208,-1.74625 -4.55083,-2.2225 -6.87916,-1.217083 -2.32834,1.005416 -3.83646,3.307291 -3.83646,5.820833 v 19.05 H 66.21269 c -4.683125,0 -8.466667,3.783542 -8.466667,8.466667 v 16.933333 c 0,4.683125 3.783542,8.466667 8.466667,8.466667 h 76.19994 v 19.05 c 0,2.54 1.50812,4.815411 3.83646,5.820831 z"
       id="path2777"
       style="fill:#ffffff;stroke-width:0.264583" /><path
       d="m -79.031568,8.7986669 c 0,-9.33979103 7.59354,-16.9333334 16.93333,-16.9333334 h 42.33333 V 25.732001 c 0,4.683125 3.78355,8.466666 8.46667,8.466666 h 33.86667 v 38.1 h -55.03334 c -9.33979,0 -16.93333,7.593542 -16.93333,16.933335 V 127.332 h -12.7 c -9.33979,0 -16.93333,-7.59355 -16.93333,-16.93334 z m 101.6,16.9333341 h -33.86667 V -8.1346665 Z m -55.03334,59.266661 h 8.46667 c 8.17563,0 14.81667,6.64105 14.81667,14.81667 0,8.175618 -6.64104,14.816668 -14.81667,14.816668 h -4.23333 v 8.46666 c 0,2.32834 -1.905,4.23334 -4.23334,4.23334 -2.32833,0 -4.23333,-1.905 -4.23333,-4.23334 v -12.7 -21.166658 c 0,-2.32834 1.905,-4.23334 4.23333,-4.23334 z m 8.46667,21.166668 c 3.51896,0 6.35,-2.83104 6.35,-6.349998 0,-3.51896 -2.83104,-6.35 -6.35,-6.35 h -4.23333 v 12.699998 z m 25.4,-21.166668 h 8.46667 c 7.01146,0 12.7,5.68855 12.7,12.7 V 114.632 c 0,7.01145 -5.68854,12.7 -12.7,12.7 h -8.46667 c -2.32833,0 -4.23333,-1.905 -4.23333,-4.23334 V 89.232002 c 0,-2.32834 1.905,-4.23334 4.23333,-4.23334 z m 8.46667,33.866668 c 2.32833,0 4.23333,-1.905 4.23333,-4.23333 V 97.698662 c 0,-2.32833 -1.905,-4.23333 -4.23333,-4.23333 h -4.23334 v 25.399998 z m 21.16667,-29.633328 c 0,-2.32834 1.905,-4.23334 4.23333,-4.23334 h 12.7 c 2.32833,0 4.23333,1.905 4.23333,4.23334 0,2.32833 -1.905,4.23333 -4.23333,4.23333 h -8.46667 V 101.932 h 8.46667 c 2.32833,0 4.23333,1.905 4.23333,4.23333 0,2.32833 -1.905,4.23333 -4.23333,4.23333 h -8.46667 v 12.7 c 0,2.32834 -1.905,4.23334 -4.23333,4.23334 -2.32833,0 -4.23333,-1.905 -4.23333,-4.23334 v -16.93333 z"
       id="path2786"
       style="fill:#ffffff;stroke-width:0.264583" /></g></svg>
