<?xml version="1.0" encoding="UTF-8" standalone="no"?>
<!-- Created with Inkscape (http://www.inkscape.org/) -->

<svg
   width="1633.9094"
   height="512"
   viewBox="0 0 432.30519 135.46667"
   version="1.1"
   id="svg5"
   xml:space="preserve"
   sodipodi:docname="pdf-to-pdf.svg"
   inkscape:version="1.2.1 (9c6d41e410, 2022-07-14)"
   xmlns:inkscape="http://www.inkscape.org/namespaces/inkscape"
   xmlns:sodipodi="http://sodipodi.sourceforge.net/DTD/sodipodi-0.dtd"
   xmlns="http://www.w3.org/2000/svg"
   xmlns:svg="http://www.w3.org/2000/svg"><sodipodi:namedview
     id="namedview7"
     pagecolor="#505050"
     bordercolor="#eeeeee"
     borderopacity="1"
     inkscape:showpageshadow="0"
     inkscape:pageopacity="0"
     inkscape:pagecheckerboard="0"
     inkscape:deskcolor="#505050"
     inkscape:document-units="mm"
     showgrid="false"
     inkscape:zoom="0.5946522"
     inkscape:cx="739.08749"
     inkscape:cy="164.80222"
     inkscape:window-width="1920"
     inkscape:window-height="1027"
     inkscape:window-x="-8"
     inkscape:window-y="1072"
     inkscape:window-maximized="1"
     inkscape:current-layer="layer1" /><defs
     id="defs2" /><g
     inkscape:label="Ebene 1"
     inkscape:groupmode="layer"
     id="layer1"
     transform="translate(79.031568,8.1346665)"><path
       d="m -79.031568,8.7986669 c 0,-9.33979103 7.59354,-16.9333334 16.93333,-16.9333334 h 42.33333 V 25.732001 c 0,4.683125 3.78355,8.466666 8.46667,8.466666 h 33.86667 v 38.1 h -55.03334 c -9.33979,0 -16.93333,7.593542 -16.93333,16.933335 V 127.332 h -12.7 c -9.33979,0 -16.93333,-7.59355 -16.93333,-16.93334 z m 101.6,16.9333341 h -33.86667 V -8.1346665 Z m -55.03334,59.266661 h 8.46667 c 8.17563,0 14.81667,6.64105 14.81667,14.81667 0,8.175618 -6.64104,14.816668 -14.81667,14.816668 h -4.23333 v 8.46666 c 0,2.32834 -1.905,4.23334 -4.23334,4.23334 -2.32833,0 -4.23333,-1.905 -4.23333,-4.23334 v -12.7 -21.166658 c 0,-2.32834 1.905,-4.23334 4.23333,-4.23334 z m 8.46667,21.166668 c 3.51896,0 6.35,-2.83104 6.35,-6.349998 0,-3.51896 -2.83104,-6.35 -6.35,-6.35 h -4.23333 v 12.699998 z m 25.4,-21.166668 h 8.46667 c 7.01146,0 12.7,5.68855 12.7,12.7 V 114.632 c 0,7.01145 -5.68854,12.7 -12.7,12.7 h -8.46667 c -2.32833,0 -4.23333,-1.905 -4.23333,-4.23334 V 89.232002 c 0,-2.32834 1.905,-4.23334 4.23333,-4.23334 z m 8.46667,33.866668 c 2.32833,0 4.23333,-1.905 4.23333,-4.23333 V 97.698662 c 0,-2.32833 -1.905,-4.23333 -4.23333,-4.23333 h -4.23334 v 25.399998 z m 21.16667,-29.633328 c 0,-2.32834 1.905,-4.23334 4.23333,-4.23334 h 12.7 c 2.32833,0 4.23333,1.905 4.23333,4.23334 0,2.32833 -1.905,4.23333 -4.23333,4.23333 h -8.46667 V 101.932 h 8.46667 c 2.32833,0 4.23333,1.905 4.23333,4.23333 0,2.32833 -1.905,4.23333 -4.23333,4.23333 h -8.46667 v 12.7 c 0,2.32834 -1.905,4.23334 -4.23333,4.23334 -2.32833,0 -4.23333,-1.905 -4.23333,-4.23334 v -16.93333 z"
       id="path2786"
       style="fill:#ffffff;stroke-width:0.264583" /><path
       d="m 222.0403,8.7986669 c 0,-9.33979103 7.59354,-16.9333334 16.93333,-16.9333334 h 42.33333 V 25.732001 c 0,4.683125 3.78355,8.466666 8.46667,8.466666 h 33.86667 v 38.1 h -55.03334 c -9.33979,0 -16.93333,7.593542 -16.93333,16.933335 V 127.332 h -12.7 c -9.33979,0 -16.93333,-7.59355 -16.93333,-16.93334 z m 101.6,16.9333341 H 289.77363 V -8.1346665 Z m -55.03334,59.266661 h 8.46667 c 8.17563,0 14.81667,6.64105 14.81667,14.81667 0,8.175618 -6.64104,14.816668 -14.81667,14.816668 h -4.23333 v 8.46666 c 0,2.32834 -1.905,4.23334 -4.23334,4.23334 -2.32833,0 -4.23333,-1.905 -4.23333,-4.23334 v -12.7 -21.166658 c 0,-2.32834 1.905,-4.23334 4.23333,-4.23334 z m 8.46667,21.166668 c 3.51896,0 6.35,-2.83104 6.35,-6.349998 0,-3.51896 -2.83104,-6.35 -6.35,-6.35 h -4.23333 v 12.699998 z m 25.4,-21.166668 h 8.46667 c 7.01146,0 12.7,5.68855 12.7,12.7 V 114.632 c 0,7.01145 -5.68854,12.7 -12.7,12.7 h -8.46667 c -2.32833,0 -4.23333,-1.905 -4.23333,-4.23334 V 89.232002 c 0,-2.32834 1.905,-4.23334 4.23333,-4.23334 z m 8.46667,33.866668 c 2.32833,0 4.23333,-1.905 4.23333,-4.23333 V 97.698662 c 0,-2.32833 -1.905,-4.23333 -4.23333,-4.23333 h -4.23334 v 25.399998 z m 21.16667,-29.633328 c 0,-2.32834 1.905,-4.23334 4.23333,-4.23334 h 12.7 c 2.32833,0 4.23333,1.905 4.23333,4.23334 0,2.32833 -1.905,4.23333 -4.23333,4.23333 h -8.46667 V 101.932 h 8.46667 c 2.32833,0 4.23333,1.905 4.23333,4.23333 0,2.32833 -1.905,4.23333 -4.23333,4.23333 h -8.46667 v 12.7 c 0,2.32834 -1.905,4.23334 -4.23333,4.23334 -2.32833,0 -4.23333,-1.905 -4.23333,-4.23334 v -16.93333 z"
       id="path2816"
       style="fill:#ffffff;stroke-width:0.264583" /><path
       d="m 190.02447,51.131999 h -38.1 c -3.51896,0 -6.35,-2.831042 -6.35,-6.35 V 6.6819985 c 0,-2.566458 1.53458,-4.8947914 3.91583,-5.87374977 2.38125,-0.9789583 5.10646,-0.4497916 6.93209,1.37583337 l 10.58333,10.5833339 19.39396,-19.3939589 c 0.97896,-0.9789583 2.27541,-1.508125 3.62479,-1.508125 1.34937,0 2.64583,0.5291667 3.62479,1.508125 l 9.71021,9.7102083 c 0.9525,0.9525001 1.48167,2.2489581 1.48167,3.5983331 0,1.349375 -0.52917,2.645834 -1.50813,3.6247925 l -19.39396,19.393958 10.58334,10.583333 c 1.82562,1.825625 2.35479,4.550834 1.37583,6.932084 -0.97896,2.38125 -3.30729,3.915833 -5.87375,3.915833 z m 0,16.933333 c 2.56646,0 4.89479,1.534584 5.87375,3.915834 0.97896,2.38125 0.44979,5.106458 -1.37583,6.932083 L 183.93905,89.496582 203.35947,108.917 c 0.9525,0.9525 1.50812,2.24896 1.50812,3.62479 0,1.37584 -0.52916,2.64584 -1.50812,3.62479 l -9.71021,9.71021 c -0.97896,0.92604 -2.27542,1.45521 -3.62479,1.45521 -1.34938,0 -2.64583,-0.52917 -3.62479,-1.50812 l -19.39396,-19.39396 -10.58333,10.58333 c -1.82563,1.82563 -4.55084,2.35479 -6.93209,1.37583 -2.38125,-0.97895 -3.91583,-3.30729 -3.91583,-5.87375 V 74.415332 c 0,-3.518958 2.83104,-6.35 6.35,-6.35 z m -67.73333,0 c 3.51895,0 6.35,2.831042 6.35,6.35 v 38.099998 c 0,2.56646 -1.53459,4.8948 -3.91584,5.87375 -2.38125,0.97896 -5.10646,0.4498 -6.93208,-1.37583 l -10.58333,-10.58333 -19.393957,19.39396 c -0.97896,0.97895 -2.27542,1.50812 -3.62479,1.50812 -1.34938,0 -2.64584,-0.52917 -3.6248,-1.50812 l -9.68375,-9.68375 c -0.97895,-0.97896 -1.50812,-2.27542 -1.50812,-3.6248 0,-1.34937 0.52917,-2.64583 1.50812,-3.62479 L 90.276553,89.496582 79.693223,78.913249 c -1.82563,-1.825625 -2.35479,-4.550833 -1.37583,-6.932083 0.97895,-2.38125 3.30729,-3.915834 5.87375,-3.915834 z M 84.191143,51.131999 c -2.56646,0 -4.8948,-1.534583 -5.87375,-3.915833 -0.97896,-2.38125 -0.4498,-5.106459 1.37583,-6.932084 L 90.276553,29.700749 70.882593,10.306791 c -0.97895,-0.9789585 -1.50812,-2.2754175 -1.50812,-3.6247925 0,-1.349375 0.52917,-2.645833 1.50812,-3.6247914 l 9.68375,-9.68375 c 0.97896,-0.9789583 2.27542,-1.508125 3.6248,-1.508125 1.34937,0 2.64583,0.5291667 3.62479,1.508125 L 107.20989,12.767416 117.79322,2.1840821 c 1.82562,-1.82562497 4.55083,-2.35479167 6.93208,-1.37583337 2.38125,0.97895837 3.91584,3.30729177 3.91584,5.87374977 V 44.781999 c 0,3.518958 -2.83105,6.35 -6.35,6.35 z"
       id="path2818"
       style="fill:#ffffff;stroke-width:0.264583" /></g></svg>
